<svg width="22" height="17" viewBox="0 0 22 17" fill="none" xmlns="http://www.w3.org/2000/svg">
<path fill-rule="evenodd" clip-rule="evenodd" d="M19.5409 0.456925C13.7493 2.56959 8.00179 4.75056 2.22878 6.88144C1.76546 7.07495 1.17704 7.15235 0.868931 7.59628C0.810932 7.71019 0.779676 7.83543 0.777469 7.96279C0.775263 8.09014 0.802162 8.21636 0.85618 8.33214C0.910199 8.44792 0.989962 8.55032 1.0896 8.63179C1.18923 8.71326 1.30619 8.77172 1.43187 8.80287C2.62029 9.21948 3.81335 9.62699 5.00873 10.0163C5.31085 10.1237 5.63438 10.1601 5.9534 10.1226C6.27242 10.085 6.57805 9.97454 6.8458 9.80001C9.73462 8.022 12.5887 6.19163 15.4821 4.42956C15.533 4.36934 15.6025 4.32709 15.6801 4.3092C15.7576 4.29131 15.839 4.29876 15.9118 4.33043C15.9847 4.36211 16.045 4.41626 16.0837 4.48468C16.1224 4.55311 16.1373 4.63207 16.1262 4.70958C13.9184 6.9338 11.574 9.03508 9.36396 11.2456C9.03732 11.5735 9.28519 11.915 9.47747 12.0652C11.3308 13.504 13.3045 14.7971 15.1995 16.179C15.7161 16.4977 16.2165 17.0418 16.8837 16.9303C17.1736 16.8926 17.4433 16.7635 17.6522 16.5624C17.8611 16.3612 17.9979 16.0989 18.042 15.8147C19.0907 11.1311 20.1385 6.44737 21.1857 1.76368C21.4312 0.88492 20.3748 0.0038853 19.5409 0.456925Z" fill="white"/>
</svg>
