<svg width="24" height="24" viewBox="0 0 24 24" fill="none" xmlns="http://www.w3.org/2000/svg">
<path d="M20.5498 2.77029C19.9698 2.23922 17.6324 0.54117 12.4265 0.516712C12.4265 0.516712 6.28415 0.146356 3.28985 2.89258C1.62325 4.55918 1.03627 6.99794 0.976876 10.0237C0.913985 13.0494 0.833625 18.7131 6.29812 20.2504H6.30162L6.29812 22.5948C6.29812 22.5948 6.26318 23.5452 6.8886 23.7373C7.64328 23.9714 8.08701 23.2517 8.81025 22.4725C9.20507 22.0463 9.75361 21.4174 10.1659 20.9387C13.9009 21.2531 16.7764 20.5334 17.1013 20.4286C17.856 20.184 22.1256 19.6355 22.8174 13.9718C23.5336 8.13347 22.468 4.43689 20.5498 2.77029ZM21.1822 13.5525C20.5953 18.2833 17.1328 18.5838 16.4969 18.7864C16.2244 18.8738 13.7017 19.5027 10.5293 19.2931C10.5293 19.2931 8.16388 22.1441 7.42666 22.8883C7.31136 23.0036 7.1751 23.0525 7.08425 23.0281C6.95847 22.9966 6.92353 22.8464 6.92353 22.6263C6.92703 22.3118 6.9445 18.7305 6.9445 18.7305C6.941 18.7305 6.941 18.7305 6.9445 18.7305C2.32553 17.4483 2.59456 12.6232 2.64697 10.0971C2.69938 7.57094 3.17455 5.50254 4.58261 4.11196C7.1157 1.81995 12.3321 2.16235 12.3321 2.16235C16.738 2.18331 18.8483 3.50751 19.3374 3.95124C20.9586 5.34531 21.7867 8.67502 21.1822 13.5525Z" fill="white"/>
<path d="M14.5676 9.89455C14.5117 8.73806 13.9247 8.13362 12.8066 8.07422" stroke="white" stroke-width="0.5" stroke-linecap="round" stroke-linejoin="round"/>
<path d="M16.0775 10.4013C16.102 9.3252 15.784 8.42726 15.1202 7.70402C14.4563 6.98077 13.5374 6.57897 12.3564 6.49512" stroke="white" stroke-width="0.5" stroke-linecap="round" stroke-linejoin="round"/>
<path d="M17.6258 11.0058C17.6118 9.13659 17.0528 7.66914 15.9522 6.59301C14.8516 5.52038 13.4785 4.97533 11.8398 4.96484" stroke="white" stroke-width="0.5" stroke-linecap="round" stroke-linejoin="round"/>
<path d="M12.8668 13.84C12.8668 13.84 13.2826 13.8749 13.5027 13.5989L13.936 13.0538C14.1456 12.7813 14.6522 12.6101 15.1484 12.8861C15.4244 13.0433 15.9205 13.3473 16.228 13.5744C16.5564 13.8155 17.2307 14.378 17.2307 14.378C17.5522 14.6471 17.6255 15.0454 17.4089 15.4646C17.4089 15.4681 17.4054 15.4716 17.4054 15.4716C17.1818 15.8664 16.8813 16.2403 16.5005 16.5862C16.497 16.5897 16.497 16.5897 16.4935 16.5932C16.1826 16.8517 15.8751 17.002 15.5746 17.0369C15.5397 17.0439 15.4943 17.0474 15.4418 17.0439C15.3091 17.0439 15.1798 17.0264 15.0505 16.9845L15.04 16.9705C14.5753 16.8412 13.8032 16.5128 12.5139 15.8035C11.6754 15.3423 10.9801 14.8707 10.3931 14.4025C10.0822 14.1579 9.76422 13.8784 9.43928 13.557C9.4288 13.5465 9.41832 13.536 9.40784 13.5255C9.39736 13.515 9.38687 13.5045 9.37639 13.4941C9.36591 13.4836 9.35543 13.4731 9.34495 13.4626C9.33447 13.4521 9.32398 13.4417 9.3135 13.4312C8.99206 13.1062 8.71255 12.7883 8.46797 12.4773C7.99979 11.8903 7.52811 11.1916 7.06691 10.3565C6.35764 9.06726 6.02921 8.2951 5.89994 7.83041L5.88596 7.81993C5.84404 7.69065 5.82307 7.56138 5.82657 7.42861C5.82307 7.3762 5.82657 7.33078 5.83355 7.29584C5.86849 6.99536 6.01873 6.6879 6.27728 6.37694C6.28078 6.37344 6.28078 6.37344 6.28427 6.36995C6.63017 5.98911 7.00052 5.68863 7.39883 5.46502C7.40233 5.46502 7.40582 5.46153 7.40582 5.46153C7.82509 5.24491 8.2234 5.31828 8.49243 5.63972C8.49592 5.64321 9.05495 6.31405 9.29603 6.64248C9.52314 6.95344 9.8306 7.44608 9.98433 7.7221C10.2604 8.21824 10.0892 8.72485 9.81663 8.93449L9.27157 9.36774C8.99555 9.59135 9.03049 10.0036 9.03049 10.0036C9.03049 10.0036 9.84108 13.0678 12.8668 13.84Z" fill="white"/>
</svg>
