<svg width="24" height="24" viewBox="0 0 24 24" fill="none" xmlns="http://www.w3.org/2000/svg">
<path fill-rule="evenodd" clip-rule="evenodd" d="M12.3249 0.194382C10.3007 0.194729 8.3129 0.73266 6.56475 1.75317C4.8166 2.77368 3.37083 4.24016 2.37529 6.00265C1.37975 7.76514 0.870142 9.7604 0.898586 11.7844C0.927031 13.8084 1.4925 15.7886 2.53718 17.5224L0.474609 23.6519L6.80126 21.6261C8.32779 22.4691 10.027 22.9516 11.7688 23.0366C13.5105 23.1216 15.2486 22.8069 16.85 22.1166C18.4514 21.4263 19.8735 20.3787 21.0076 19.054C22.1417 17.7292 22.9575 16.1626 23.3927 14.4739C23.8279 12.7853 23.8709 11.0194 23.5184 9.3116C23.1659 7.60377 22.4273 5.99925 21.359 4.62092C20.2908 3.24259 18.9213 2.12699 17.3554 1.35956C15.7895 0.592124 14.0688 0.193209 12.3249 0.193359V0.194382ZM12.3249 21.2287C10.4451 21.2308 8.6065 20.6782 7.03929 19.6402L3.34729 20.8221L4.54765 17.2538C3.28394 15.5066 2.64503 13.385 2.73379 11.2306C2.82256 9.07613 3.63383 7.01427 5.03697 5.377C6.44012 3.73973 8.35347 2.62235 10.4689 2.20479C12.5844 1.78723 14.7788 2.09379 16.6988 3.07511C18.6188 4.05643 20.1527 5.65539 21.0534 7.61452C21.9541 9.57364 22.1693 11.7789 21.6642 13.8752C21.1591 15.9714 19.9633 17.8367 18.2691 19.1707C16.575 20.5046 14.4812 21.2295 12.3249 21.2287Z" fill="white"/>
<path fill-rule="evenodd" clip-rule="evenodd" d="M9.64516 6.89536C9.46025 6.44893 9.31825 6.43361 9.03221 6.42033C8.93005 6.41522 8.82789 6.41113 8.71143 6.41113C8.34264 6.41113 7.96057 6.51942 7.73072 6.7554C7.4508 7.04145 6.75 7.71262 6.75 9.09073C6.75 10.4688 7.75421 11.801 7.89417 11.9879C8.03412 12.1749 9.85152 15.0445 12.6793 16.2163C14.8869 17.1357 15.5397 17.0488 16.0454 16.9385C16.7778 16.7791 17.6983 16.2398 17.9312 15.5859C18.1641 14.9321 18.1651 14.3703 18.0947 14.2579C18.0242 14.1455 17.8382 14.072 17.5583 13.931C17.2784 13.79 15.9003 13.1137 15.6439 13.0197C15.5236 12.9629 15.3867 12.9523 15.2591 12.99C15.1316 13.0277 15.0223 13.111 14.9523 13.224C14.7197 13.569 14.4687 13.9012 14.2004 14.2191C14.1109 14.3035 13.9978 14.3585 13.8762 14.3768C13.7546 14.395 13.6303 14.3756 13.52 14.3212C12.6886 14.0031 11.9245 13.5314 11.2674 12.9309C10.6545 12.3646 10.1291 11.7105 9.7085 10.9899C9.54504 10.7099 9.69419 10.5424 9.81985 10.3902C9.96389 10.2165 10.0967 10.0919 10.2367 9.92843C10.359 9.79756 10.4622 9.65 10.5431 9.49017C10.578 9.40651 10.5926 9.31578 10.5857 9.2254C10.5787 9.13502 10.5505 9.04756 10.5033 8.97019C10.4369 8.83432 9.87706 7.46029 9.64516 6.89536Z" fill="white"/>
</svg>
